HIERARCHY
ROOT Hips
{
 OFFSET 0.000000 0.000000 0.000000
 CHANNELS 6 Xposition Yposition Zposition Yrotation Xrotation Zrotation
 JOINT Chest
 {
  OFFSET 0.000000 9.303000 0.001900
  CHANNELS 3 Yrotation Xrotation Zrotation
  JOINT Chest2
  {
   OFFSET 0.000000 9.301100 -0.003900
   CHANNELS 3 Yrotation Xrotation Zrotation
   JOINT Chest3
   {
    OFFSET 0.000000 9.262800 0.000000
    CHANNELS 3 Yrotation Xrotation Zrotation
    JOINT Chest4
    {
     OFFSET 0.000000 9.253300 0.000000
     CHANNELS 3 Yrotation Xrotation Zrotation
     JOINT Neck
     {
      OFFSET 0.000000 14.010300 0.000000
      CHANNELS 3 Yrotation Xrotation Zrotation
      JOINT Head
      {
       OFFSET 0.000000 8.657600 -0.008300
       CHANNELS 3 Yrotation Xrotation Zrotation
       End Site
       {
        OFFSET 0.000000 16.540200 -0.004400
       }
      }
     }
     JOINT RightCollar
     {
      OFFSET -2.834100 9.267700 0.000000
      CHANNELS 3 Yrotation Xrotation Zrotation
      JOINT RightShoulder
      {
       OFFSET -13.135200 0.000000 0.000000
       CHANNELS 3 Yrotation Xrotation Zrotation
       JOINT RightElbow
       {
        OFFSET 0.000000 -28.893500 0.000000
        CHANNELS 3 Yrotation Xrotation Zrotation
        JOINT RightWrist
        {
         OFFSET 0.000000 -23.344000 0.000000
         CHANNELS 3 Yrotation Xrotation Zrotation
         End Site
         {
          OFFSET 0.000000 -17.223000 0.000000
         }
        }
       }
      }
     }
     JOINT LeftCollar
     {
      OFFSET 2.834100 9.267700 0.000000
      CHANNELS 3 Yrotation Xrotation Zrotation
      JOINT LeftShoulder
      {
       OFFSET 13.135200 0.000000 0.000000
       CHANNELS 3 Yrotation Xrotation Zrotation
       JOINT LeftElbow
       {
        OFFSET 0.000000 -28.893500 0.000000
        CHANNELS 3 Yrotation Xrotation Zrotation
        JOINT LeftWrist
        {
         OFFSET 0.000000 -23.344000 0.000000
         CHANNELS 3 Yrotation Xrotation Zrotation
         End Site
         {
          OFFSET 0.000000 -17.223000 0.000000
         }
        }
       }
      }
     }
    }
   }
  }
 }
 JOINT RightHip
 {
  OFFSET -7.547200 -0.009500 -0.001000
  CHANNELS 3 Yrotation Xrotation Zrotation
  JOINT RightKnee
  {
   OFFSET 0.000000 -39.762800 0.000900
   CHANNELS 3 Yrotation Xrotation Zrotation
   JOINT RightAnkle
   {
    OFFSET 0.000000 -38.588200 0.001600
    CHANNELS 3 Yrotation Xrotation Zrotation
    JOINT RightToe
    {
     OFFSET 0.000000 -4.693300 10.419700
     CHANNELS 3 Yrotation Xrotation Zrotation
     End Site
     {
      OFFSET 0.000000 -1.379900 5.669300
     }
    }
   }
  }
 }
 JOINT LeftHip
 {
  OFFSET 7.547200 -0.009500 -0.001000
  CHANNELS 3 Yrotation Xrotation Zrotation
  JOINT LeftKnee
  {
   OFFSET 0.000000 -39.762800 0.000900
   CHANNELS 3 Yrotation Xrotation Zrotation
   JOINT LeftAnkle
   {
    OFFSET 0.000000 -38.588200 0.001600
    CHANNELS 3 Yrotation Xrotation Zrotation
    JOINT LeftToe
    {
     OFFSET 0.000000 -4.693300 10.419700
     CHANNELS 3 Yrotation Xrotation Zrotation
     End Site
     {
      OFFSET 0.000000 -1.379900 5.669300
     }
    }
   }
  }
 }
}
MOTION
Frames: 9
Frame Time: 0.008333
0.000000 82.880600 0.000000 0.000000 -5.767877 0.000000 0.000000 11.653817 0.000000 0.000000 -5.885947 0.000000 0.000000 -0.000000 0.000000 0.000000 -0.000000 0.000000 0.000000 12.528835 0.000000 0.000000 0.711642 0.000000 0.000000 -0.000000 0.000000 0.000000 0.000000 -90.000000 0.000000 -2.309062 0.000000 0.000000 2.309062 0.000000 0.000000 -0.000000 0.000000 0.000000 -0.000000 90.000000 0.000000 -2.309062 0.000000 0.000000 2.309062 0.000000 0.000000 8.520406 0.000000 0.000000 1.905762 0.000000 -0.000000 -4.658285 0.000000 0.000000 -0.000000 0.000000 0.000000 8.520406 0.000000 0.000000 1.905762 0.000000 -0.000000 -4.658285 0.000000 0.000000 -0.000000 0.000000
2.220212 45.986763 8.801849 168.496380 -8.868750 0.642758 1.322138 7.316230 0.339191 0.060125 0.326416 0.024161 0.105422 0.571858 0.042603 1.314579 6.930242 0.591458 -2.223240 21.501162 0.078170 -2.400404 -2.793218 0.590611 2.439569 4.756934 -4.924311 -6.299596 -6.510427 -1.216394 139.480212 -86.230754 -123.565470 -6.926037 -4.817120 -25.566192 -9.104038 2.646946 -2.747711 15.781898 -7.204975 6.357748 52.562506 -69.413306 -75.135272 7.194824 -2.237241 13.813131 -32.214377 -78.341859 20.234702 -151.864776 83.775520 -151.905094 -7.486782 -11.990216 -3.230864 0.032102 -0.185251 0.009500 -0.667486 -77.913573 19.359255 93.567855 79.073641 90.500229 -12.574630 -8.098862 2.145233 0.089057 0.350912 0.037692
2.222461 45.986549 8.802422 168.487858 -8.861238 0.629733 1.331142 7.308285 0.352035 0.059524 0.326762 0.024202 0.105836 0.571015 0.042472 1.315774 6.929987 0.592360 -2.232311 21.502882 0.076355 -2.395424 -2.791164 0.591615 2.440008 4.750775 -4.921973 -6.298692 -6.512937 -1.220912 139.353104 -86.238138 -123.438526 -6.926972 -4.817911 -25.571068 -9.112026 2.640271 -2.755328 15.789818 -7.208311 6.363177 52.561469 -69.415292 -75.138983 7.197864 -2.232339 13.821999 -32.283754 -78.342149 20.297319 -152.014601 83.778464 -152.068855 -7.194630 -11.964957 -3.266051 0.052664 -0.189829 0.009376 -0.728661 -77.920874 19.430471 93.574894 79.073705 90.508950 -12.569488 -8.106173 2.145493 0.084667 0.357263 0.035691
2.223119 45.986649 8.801266 168.484047 -8.862021 0.628880 1.333318 7.310021 0.353231 0.059468 0.326617 0.024180 0.107254 0.570017 0.042140 1.311676 6.927525 0.589313 -2.231325 21.507706 0.078268 -2.398778 -2.787648 0.592663 2.443329 4.743124 -4.921123 -6.295011 -6.510060 -1.222075 139.235376 -86.235691 -123.322387 -6.935514 -4.810990 -25.574858 -9.112832 2.635265 -2.746431 15.796569 -7.201729 6.357326 52.574119 -69.420199 -75.162956 7.200959 -2.226179 13.836074 -32.275198 -78.340415 20.286636 -152.091280 83.781529 -152.141824 -7.041599 -11.955770 -3.289983 0.056053 -0.188613 0.007417 -0.737747 -77.919922 19.441344 93.588378 79.074397 90.524559 -12.567969 -8.110713 2.145862 0.085238 0.358825 0.032626
2.223923 45.986717 8.801077 168.479661 -8.857453 0.627564 1.336081 7.306299 0.355314 0.059931 0.325980 0.024094 0.106446 0.571667 0.041948 1.307581 6.924362 0.587170 -2.226146 21.509994 0.079189 -2.405488 -2.781127 0.593915 2.444112 4.733459 -4.927629 -6.281736 -6.505724 -1.222521 139.139950 -86.241175 -123.234524 -6.938988 -4.806517 -25.571908 -9.109100 2.633384 -2.741623 15.789750 -7.208394 6.354640 52.581108 -69.419151 -75.161923 7.201697 -2.221140 13.837902 -32.280358 -78.343064 20.290458 -152.150140 83.784760 -152.197932 -6.906478 -11.946875 -3.312102 0.062592 -0.186883 0.008710 -0.756395 -77.922406 19.462282 93.588018 79.071206 90.524014 -12.566941 -8.113581 2.143727 0.082938 0.361340 0.032611
2.225585 45.986908 8.801036 168.479640 -8.854178 0.621853 1.333916 7.302345 0.359940 0.062422 0.326380 0.024899 0.101451 0.570129 0.041106 1.310040 6.923754 0.587097 -2.228238 21.517761 0.080210 -2.408612 -2.774053 0.594921 2.446634 4.731354 -4.930375 -6.270582 -6.508425 -1.229921 139.062852 -86.250065 -123.165774 -6.942676 -4.806631 -25.570802 -9.107319 2.634479 -2.740451 15.777061 -7.216839 6.353066 52.593667 -69.419094 -75.160520 7.194873 -2.216370 13.847089 -32.307191 -78.342166 20.315071 -152.161866 83.785071 -152.206230 -6.823819 -11.940644 -3.327633 0.110368 -0.186993 0.011882 -0.790716 -77.925868 19.495533 93.578055 79.070058 90.519580 -12.569840 -8.110742 2.135002 0.087911 0.361127 0.035898
2.226943 45.987197 8.800974 168.478107 -8.852219 0.619654 1.330986 7.299927 0.359901 0.063493 0.326018 0.025597 0.103370 0.570532 0.041632 1.310664 6.923078 0.587288 -2.238936 21.534978 0.079435 -2.406516 -2.758015 0.595361 2.448040 4.730842 -4.931082 -6.264576 -6.512376 -1.237868 138.963732 -86.256035 -123.067697 -6.940001 -4.801872 -25.571353 -9.110494 2.630813 -2.739370 15.752560 -7.232610 6.359434 52.603620 -69.409532 -75.144563 7.183097 -2.217657 13.844134 -32.310012 -78.341738 20.320807 -152.139251 83.786372 -152.177170 -6.806908 -11.941850 -3.331325 0.062689 -0.185395 0.010907 -0.809257 -77.928608 19.513410 93.576703 79.068187 90.520722 -12.564828 -8.108857 2.130158 0.086669 0.360419 0.037589
2.225860 45.987949 8.798239 168.481882 -8.865431 0.635705 1.319671 7.313599 0.340496 0.065842 0.325466 0.026706 0.104818 0.570819 0.042191 1.306519 6.924252 0.585678 -2.236867 21.539920 0.080902 -2.408191 -2.738592 0.597033 2.452417 4.721484 -4.935922 -6.257071 -6.508651 -1.242045 138.896340 -86.261337 -123.000884 -6.933059 -4.795204 -25.573648 -9.115617 2.614642 -2.736966 15.754105 -7.225227 6.366401 52.613731 -69.406590 -75.148162 7.178195 -2.217569 13.836130 -32.211744 -78.335159 20.236560 -151.931877 83.782276 -151.946661 -6.995575 -11.961038 -3.311123 0.030103 -0.180551 0.004572 -0.745230 -77.909143 19.442758 93.556350 79.060615 90.501502 -12.578588 -8.112897 2.119887 0.100468 0.363471 0.044224
2.225918 45.988246 8.798699 168.484890 -8.862196 0.641645 1.309449 7.311470 0.331328 0.065840 0.325141 0.025594 0.104135 0.570949 0.042366 1.298745 6.925864 0.586321 -2.226522 21.544241 0.081079 -2.412106 -2.711055 0.600935 2.486838 4.709623 -4.952443 -6.273890 -6.497855 -1.230126 138.705384 -86.259656 -122.807432 -6.931608 -4.795746 -25.575962 -9.106647 2.599279 -2.740353 15.751781 -7.223816 6.379272 52.621169 -69.402084 -75.152870 7.175031 -2.214879 13.829868 -32.200364 -78.341487 20.229482 -151.799046 83.779934 -151.800666 -7.082633 -11.962981 -3.307219 0.020937 -0.183844 0.004504 -0.717725 -77.910967 19.410555 93.532544 79.055670 90.477294 -12.578897 -8.110874 2.119247 0.102630 0.364383 0.044844
